HIERARCHY
ROOT Hips
{
 OFFSET 0.000000 0.000000 0.000000
 CHANNELS 6 Xposition Yposition Zposition Yrotation Xrotation Zrotation
 JOINT Chest
 {
  OFFSET 0.000000 9.585900 0.002600
  CHANNELS 3 Yrotation Xrotation Zrotation
  JOINT Chest2
  {
   OFFSET 0.000000 9.601200 -0.005300
   CHANNELS 3 Yrotation Xrotation Zrotation
   JOINT Chest3
   {
    OFFSET 0.000000 9.561800 0.000000
    CHANNELS 3 Yrotation Xrotation Zrotation
    JOINT Chest4
    {
     OFFSET 0.000000 9.552100 0.000000
     CHANNELS 3 Yrotation Xrotation Zrotation
     JOINT Neck
     {
      OFFSET 0.000000 14.453000 0.000000
      CHANNELS 3 Yrotation Xrotation Zrotation
      JOINT Head
      {
       OFFSET 0.000000 8.936500 -0.011300
       CHANNELS 3 Yrotation Xrotation Zrotation
       End Site
       {
        OFFSET 0.000000 17.073600 -0.006000
       }
      }
     }
     JOINT RightCollar
     {
      OFFSET -2.921100 9.558500 0.000000
      CHANNELS 3 Yrotation Xrotation Zrotation
      JOINT RightShoulder
      {
       OFFSET -13.519700 0.000000 0.000000
       CHANNELS 3 Yrotation Xrotation Zrotation
       JOINT RightElbow
       {
        OFFSET 0.000000 -29.696600 0.000000
        CHANNELS 3 Yrotation Xrotation Zrotation
        JOINT RightWrist
        {
         OFFSET 0.000000 -24.004700 0.000000
         CHANNELS 3 Yrotation Xrotation Zrotation
         End Site
         {
          OFFSET 0.000000 -17.728500 0.000000
         }
        }
       }
      }
     }
     JOINT LeftCollar
     {
      OFFSET 2.921100 9.558500 0.000000
      CHANNELS 3 Yrotation Xrotation Zrotation
      JOINT LeftShoulder
      {
       OFFSET 13.519700 0.000000 0.000000
       CHANNELS 3 Yrotation Xrotation Zrotation
       JOINT LeftElbow
       {
        OFFSET 0.000000 -29.696600 0.000000
        CHANNELS 3 Yrotation Xrotation Zrotation
        JOINT LeftWrist
        {
         OFFSET 0.000000 -24.004700 0.000000
         CHANNELS 3 Yrotation Xrotation Zrotation
         End Site
         {
          OFFSET 0.000000 -17.728500 0.000000
         }
        }
       }
      }
     }
    }
   }
  }
 }
 JOINT RightHip
 {
  OFFSET -7.771700 -0.012900 -0.001300
  CHANNELS 3 Yrotation Xrotation Zrotation
  JOINT RightKnee
  {
   OFFSET 0.000000 -40.869800 0.001200
   CHANNELS 3 Yrotation Xrotation Zrotation
   JOINT RightAnkle
   {
    OFFSET 0.000000 -39.717900 0.002100
    CHANNELS 3 Yrotation Xrotation Zrotation
    JOINT RightToe
    {
     OFFSET 0.000000 -4.965400 11.033500
     CHANNELS 3 Yrotation Xrotation Zrotation
     End Site
     {
      OFFSET 0.000000 -1.423100 5.872300
     }
    }
   }
  }
 }
 JOINT LeftHip
 {
  OFFSET 7.771700 -0.012900 -0.001300
  CHANNELS 3 Yrotation Xrotation Zrotation
  JOINT LeftKnee
  {
   OFFSET 0.000000 -40.869800 0.001200
   CHANNELS 3 Yrotation Xrotation Zrotation
   JOINT LeftAnkle
   {
    OFFSET 0.000000 -39.717900 0.002100
    CHANNELS 3 Yrotation Xrotation Zrotation
    JOINT LeftToe
    {
     OFFSET 0.000000 -4.965400 11.033500
     CHANNELS 3 Yrotation Xrotation Zrotation
     End Site
     {
      OFFSET 0.000000 -1.423100 5.872300
     }
    }
   }
  }
 }
}
MOTION
Frames: 12
Frame Time: 0.008333
0.000000 85.388000 0.000000 0.000000 -5.767877 0.000000 0.000000 11.653817 0.000000 0.000000 -5.885947 0.000000 0.000000 -0.000000 0.000000 0.000000 -0.000000 0.000000 0.000000 12.528835 0.000000 0.000000 0.711642 0.000000 0.000000 -0.000000 0.000000 0.000000 0.000000 -90.000000 0.000000 -2.309062 0.000000 0.000000 2.309062 0.000000 0.000000 -0.000000 0.000000 0.000000 -0.000000 90.000000 0.000000 -2.309062 0.000000 0.000000 2.309062 0.000000 0.000000 8.520406 0.000000 0.000000 1.905762 0.000000 -0.000000 -4.658285 0.000000 0.000000 -0.000000 0.000000 0.000000 8.520406 0.000000 0.000000 1.905762 0.000000 -0.000000 -4.658285 0.000000 0.000000 -0.000000 0.000000
-7.162874 52.068362 29.337449 172.736307 -39.903821 -1.618931 3.899449 24.768064 3.522081 0.384325 3.929580 0.645198 0.677674 6.315661 1.045933 2.771830 20.488741 3.786963 2.788408 14.973228 0.026647 5.223500 -7.909557 -1.001448 -4.546925 -0.926696 -5.221540 -0.451687 -27.861122 -10.481617 154.224095 -78.183157 -138.456581 4.943110 3.352922 1.822229 -10.604034 -1.120001 2.172688 8.469144 -31.893964 8.616973 86.694746 -74.216159 -105.061698 -4.749037 -14.531953 16.916066 -4.611670 -41.477687 1.354725 -137.709462 84.101505 -132.148982 0.288730 -11.163320 -4.866525 0.577874 -1.067976 0.252948 -0.452089 -38.080305 3.880483 78.214401 80.672993 67.883394 -7.396735 -11.606799 8.192378 0.252753 1.409055 0.116206
-7.154772 52.070465 29.323229 172.711948 -39.930212 -1.604961 3.952804 24.813416 3.539640 0.417048 3.954083 0.642013 0.653740 6.295521 1.046356 2.764933 20.475558 3.790049 2.791009 15.000271 0.024679 5.189834 -7.888768 -0.970507 -4.453525 -0.971580 -5.256860 -0.321897 -28.383442 -10.687420 153.668751 -78.247738 -138.119082 4.932402 3.333753 1.738573 -10.610003 -1.139851 2.199153 8.561222 -32.063377 8.541200 86.031497 -73.636165 -104.278957 -4.571155 -14.800365 17.245569 -4.579385 -41.453815 1.359411 -137.914997 84.090156 -132.344236 0.271228 -11.170561 -4.872967 0.579737 -1.081494 0.260214 -0.433121 -38.050398 3.888022 78.416849 80.676995 68.079788 -7.386963 -11.639823 8.197597 0.240182 1.405272 0.112297
-7.149088 52.068470 29.311303 172.704817 -39.920020 -1.583096 3.985176 24.823717 3.534564 0.412064 3.949193 0.641313 0.701375 6.326381 1.038702 2.757566 20.458109 3.788622 2.773513 15.016018 0.040619 5.153396 -7.877221 -0.936694 -4.385654 -1.035568 -5.267962 -0.191621 -28.886541 -10.882067 153.036241 -78.313095 -137.728912 4.927232 3.304731 1.644488 -10.643680 -1.176372 2.249165 8.664186 -32.226934 8.456413 85.521787 -73.132840 -103.653058 -4.420127 -15.069057 17.579564 -4.553191 -41.467806 1.343592 -138.073734 84.078890 -132.496884 0.263567 -11.183419 -4.880827 0.577905 -1.085444 0.267246 -0.416851 -38.053029 3.870812 78.484088 80.679133 68.144032 -7.392194 -11.670284 8.199676 0.234647 1.418637 0.109481
-7.143955 52.062930 29.301903 172.708223 -39.877666 -1.561577 4.005480 24.802524 3.520306 0.414648 3.949951 0.639819 0.705466 6.327458 1.036381 2.782970 20.465467 3.778263 2.744538 15.010329 0.066207 5.133681 -7.876516 -0.917067 -4.322230 -1.099938 -5.276275 -0.055917 -29.368733 -11.062903 152.386201 -78.380871 -137.337359 4.936214 3.276103 1.541540 -10.675815 -1.213416 2.298855 8.773775 -32.383677 8.363288 85.170692 -72.707925 -103.181069 -4.300679 -15.318252 17.908704 -4.533685 -41.516172 1.321642 -138.167386 84.064590 -132.584797 0.266215 -11.193741 -4.887954 0.585247 -1.084960 0.268058 -0.408190 -38.089969 3.850274 78.507773 80.683764 68.162064 -7.403780 -11.693255 8.197487 0.235946 1.435287 0.111297
-7.138284 52.059806 29.288639 172.721392 -39.857799 -1.542798 4.018726 24.804016 3.506012 0.424936 3.956441 0.637527 0.701813 6.323250 1.035214 2.771276 20.454098 3.778565 2.731704 15.005243 0.076925 5.110762 -7.801378 -0.902006 -4.234401 -1.145961 -5.310252 0.083328 -29.831952 -11.226302 151.735048 -78.451887 -136.954716 4.955577 3.259341 1.432986 -10.675630 -1.232507 2.318992 8.894290 -32.536090 8.262046 84.971071 -72.352530 -102.861526 -4.218502 -15.532867 18.214913 -4.519689 -41.538594 1.290890 -138.348251 84.048735 -132.759402 0.270315 -11.216354 -4.892391 0.581592 -1.084875 0.263124 -0.403426 -38.103328 3.823397 78.579457 80.684324 68.229600 -7.415186 -11.721190 8.188676 0.236743 1.448263 0.118886
-7.134177 52.061542 29.268703 172.742278 -39.883313 -1.511955 4.021505 24.851231 3.477868 0.427362 3.957115 0.636015 0.685986 6.313699 1.034394 2.779648 20.456452 3.775431 2.733001 15.033829 0.073129 5.064643 -7.760533 -0.872407 -4.152252 -1.191158 -5.346410 0.212886 -30.278060 -11.364866 151.055919 -78.524580 -136.550270 4.974418 3.252801 1.324961 -10.680090 -1.250587 2.336449 9.034785 -32.680894 8.154051 84.889328 -72.047958 -102.678286 -4.170278 -15.712912 18.463841 -4.486325 -41.517015 1.235705 -138.775149 84.032382 -133.186547 0.254705 -11.250749 -4.891699 0.567822 -1.091902 0.266128 -0.396760 -38.063981 3.782407 78.667088 80.690072 68.308754 -7.447730 -11.755377 8.175287 0.275225 1.460117 0.132919
-7.127889 52.058991 29.254317 172.751014 -39.867342 -1.488650 4.039393 24.855126 3.463785 0.429810 3.957643 0.634608 0.667445 6.304090 1.033438 2.804829 20.468459 3.763744 2.715950 15.048894 0.083843 5.030633 -7.730955 -0.851254 -4.081099 -1.244499 -5.369073 0.319260 -30.703895 -11.477760 150.378102 -78.601334 -136.145058 4.992356 3.254767 1.219344 -10.697069 -1.278731 2.366555 9.185169 -32.809463 8.043021 84.889171 -71.771814 -102.593701 -4.141562 -15.865539 18.614274 -4.459898 -41.539951 1.209163 -138.976186 84.011773 -133.385708 0.246989 -11.265485 -4.894434 0.560768 -1.101210 0.271379 -0.385126 -38.075867 3.750753 78.771303 80.693800 68.412968 -7.459945 -11.779152 8.172136 0.274003 1.464727 0.129972
-7.121387 52.056279 29.240473 172.771869 -39.847877 -1.473778 4.050624 24.857543 3.450877 0.432690 3.958205 0.633278 0.704056 6.320018 1.029675 2.841412 20.476233 3.751663 2.656683 15.034502 0.124250 4.986939 -7.703525 -0.828484 -4.123240 -1.310266 -5.330312 0.460013 -31.128277 -11.594699 149.758555 -78.687010 -135.784773 5.010324 3.267071 1.117879 -10.783366 -1.326502 2.434942 9.345002 -32.924605 7.928966 84.941300 -71.501005 -102.572193 -4.116174 -15.995169 18.639124 -4.445876 -41.563212 1.189031 -139.137570 83.992913 -133.551012 0.245371 -11.283356 -4.899940 0.556785 -1.104519 0.279537 -0.384261 -38.091101 3.719658 78.841216 80.698278 68.479324 -7.457358 -11.798373 8.173348 0.271884 1.468555 0.126269
-7.118373 52.051172 29.229566 172.799579 -39.804026 -1.444708 4.048652 24.840622 3.416256 0.426342 3.951362 0.631726 0.728268 6.334984 1.026403 2.847648 20.471252 3.748473 2.654070 15.090597 0.108859 4.930664 -7.763992 -0.777912 -4.032426 -1.387414 -5.359156 0.458278 -31.491125 -11.643428 149.214242 -78.783380 -135.481937 5.024393 3.283197 1.019472 -10.821610 -1.359050 2.471371 9.495830 -33.022482 7.816206 85.021877 -71.207833 -102.596700 -4.081004 -16.106155 18.532975 -4.401054 -41.616272 1.153214 -139.072982 83.956535 -133.476623 0.160546 -11.280557 -4.914211 0.646979 -1.124392 0.311058 -0.375529 -38.128804 3.665032 78.886664 80.703584 68.519391 -7.478418 -11.859757 8.167145 0.286069 1.519477 0.137110
-7.112914 52.044949 29.221271 172.826097 -39.746203 -1.432386 4.043777 24.804689 3.394802 0.437406 3.960645 0.630507 0.732515 6.337438 1.024350 2.860335 20.474344 3.742598 2.636862 15.097024 0.113701 4.896904 -7.780367 -0.751387 -3.941914 -1.468176 -5.393170 0.437275 -31.828051 -11.666075 148.732413 -78.891186 -135.229465 5.032309 3.300458 0.911748 -10.819123 -1.399067 2.495515 9.595714 -33.107597 7.717061 85.107121 -70.868759 -102.643380 -4.025348 -16.210825 18.310670 -4.380897 -41.680960 1.130812 -139.130476 83.932820 -133.526897 0.144747 -11.298770 -4.914631 0.660835 -1.120923 0.316020 -0.378901 -38.183968 3.640443 78.903898 80.715667 68.531583 -7.500343 -11.877562 8.172044 0.310318 1.533962 0.138362
-7.108094 52.042238 29.209578 172.858758 -39.718076 -1.420229 4.041066 24.807629 3.374850 0.440540 3.962551 0.628446 0.735969 6.341751 1.023233 2.871733 20.479198 3.736506 2.623434 15.099226 0.113895 4.859953 -7.770299 -0.731740 -3.881373 -1.542349 -5.420603 0.446494 -32.145544 -11.683018 148.314951 -79.008420 -135.039176 5.033656 3.324596 0.792119 -10.853973 -1.437892 2.530164 9.740190 -33.184959 7.598308 85.183855 -70.488103 -102.695127 -3.938114 -16.319852 18.002893 -4.355780 -41.712887 1.101911 -139.262588 83.910216 -133.653617 0.114844 -11.324574 -4.904233 0.672537 -1.120017 0.319222 -0.387458 -38.205796 3.606548 78.916298 80.722547 68.535957 -7.496249 -11.895149 8.170099 0.310918 1.543160 0.141011
